<svg width="104" height="100" viewBox="0 0 104 100" fill="none" xmlns="http://www.w3.org/2000/svg">
<rect x="22" width="16" height="16" fill="#F2F2F2"/>
<rect x="88" y="84" width="16" height="16" fill="#FFA500"/>
<rect x="44" width="16" height="16" fill="#FFA500"/>
<rect x="66" width="16" height="16" fill="#F2F2F2"/>
<rect x="88" width="16" height="16" fill="#F2F2F2"/>
<rect x="22" y="21" width="16" height="16" fill="#F2F2F2"/>
<rect x="44" y="21" width="16" height="16" fill="#F2F2F2"/>
<rect x="66" y="21" width="16" height="16" fill="#F2F2F2"/>
<rect x="88" y="21" width="16" height="16" fill="#F2F2F2"/>
<rect x="22" y="42" width="16" height="16" fill="#FFA500"/>
<rect x="44" y="42" width="16" height="16" fill="#FFA500"/>
<rect x="66" y="42" width="16" height="16" fill="#FFA500"/>
<rect x="88" y="42" width="16" height="16" fill="#F2F2F2"/>
<rect x="22" y="63" width="16" height="16" fill="#F2F2F2"/>
<rect x="44" y="63" width="16" height="16" fill="#F2F2F2"/>
<rect x="66" y="63" width="16" height="16" fill="#F2F2F2"/>
<rect x="88" y="63" width="16" height="16" fill="#F2F2F2"/>
<rect width="16" height="16" fill="#F2F2F2"/>
<rect x="66" y="84" width="16" height="16" fill="#F2F2F2"/>
<rect y="84" width="16" height="16" fill="#FFA500"/>
<rect x="22" y="84" width="16" height="16" fill="#F2F2F2"/>
<rect x="44" y="84" width="16" height="16" fill="#F2F2F2"/>
<rect y="21" width="16" height="16" fill="#F2F2F2"/>
<rect y="42" width="16" height="16" fill="#F2F2F2"/>
<rect y="63" width="16" height="16" fill="#F2F2F2"/>
</svg>
