<?xml version="1.0" standalone="no"?>
<!DOCTYPE svg PUBLIC "-//W3C//DTD SVG 20010904//EN"
 "http://www.w3.org/TR/2001/REC-SVG-20010904/DTD/svg10.dtd">
<svg version="1.0" xmlns="http://www.w3.org/2000/svg"
 width="832.000000pt" height="832.000000pt" viewBox="0 0 832.000000 832.000000"
 preserveAspectRatio="xMidYMid meet">
<metadata>
Created by potrace 1.11, written by Peter Selinger 2001-2013
</metadata>
<g transform="translate(0.000000,832.000000) scale(0.100000,-0.100000)"
fill="#000000" stroke="none">
<path d="M3520 7520 l0 -640 640 0 640 0 0 640 0 640 -640 0 -640 0 0 -640z"/>
<path d="M1760 4160 l0 -640 640 0 640 0 0 640 0 640 -640 0 -640 0 0 -640z"/>
<path d="M3520 4160 l0 -640 640 0 640 0 0 640 0 640 -640 0 -640 0 0 -640z"/>
<path d="M5280 4160 l0 -640 640 0 640 0 0 640 0 640 -640 0 -640 0 0 -640z"/>
<path d="M0 800 l0 -640 640 0 640 0 0 640 0 640 -640 0 -640 0 0 -640z"/>
<path d="M7040 800 l0 -640 640 0 640 0 0 640 0 640 -640 0 -640 0 0 -640z"/>
</g>
</svg>
